<svg version="1.1" id="Layer_1" xmlns="http://www.w3.org/2000/svg" xmlns:xlink="http://www.w3.org/1999/xlink" x="0px" y="0px"
	 width="100%" viewBox="0 0 900 277" enable-background="new 0 0 900 277" xml:space="preserve">
<path fill="#000000" opacity="1.000000" stroke="none" 
	d="
M9.000000,1.000000 
	C306.279449,1.000000 603.558899,1.000000 900.919189,1.000000 
	C900.919189,93.262642 900.919189,185.525375 900.919189,277.894043 
	C601.000000,277.894043 301.000000,277.894043 1.000000,277.894043 
	C1.000000,189.557587 1.000000,101.240044 1.405337,12.464434 
	C4.528831,12.366108 7.246988,12.725858 9.807773,13.389032 
	C8.093537,17.801531 6.536674,21.910604 4.617620,26.246655 
	C4.171620,27.129797 4.014513,27.785950 4.014399,28.442133 
	C4.001293,103.452026 3.995322,178.461929 4.038919,253.471786 
	C4.039608,254.656799 4.657143,255.841461 4.983798,257.434875 
	C4.697143,266.229645 13.134676,274.888916 21.016897,275.364441 
	C22.398514,275.830505 23.549957,275.991547 24.701403,275.991577 
	C307.942810,276.001709 591.184204,276.000793 874.425598,275.997040 
	C876.257507,275.997009 878.089355,275.953979 880.298218,275.936829 
	C883.117371,275.005676 885.744690,274.381531 887.963989,273.067902 
	C892.884888,270.155212 896.818237,266.357239 897.374146,259.830139 
	C897.827759,257.943970 897.989441,256.290131 897.989075,254.636383 
	C897.972290,177.123611 897.941406,99.610847 897.820190,21.758415 
	C894.270447,12.256389 887.700073,7.076258 877.784912,5.558107 
	C865.742615,5.103770 853.867371,5.038271 841.992126,5.043247 
	C841.351807,5.043516 840.711792,5.635015 839.598694,5.966709 
	C568.214905,5.986925 297.303955,5.989177 26.393064,6.036711 
	C23.955910,6.037138 21.518864,6.644198 18.938709,6.628999 
	C17.446037,5.869337 15.694388,4.688030 14.813220,5.153743 
	C9.770492,7.818913 10.137350,3.453014 9.000000,1.000000 
z"/>
<path fill="#FBFBFC" opacity="1.000000" stroke="none" 
	d="
M8.505266,1.000000 
	C10.137350,3.453014 9.770492,7.818913 14.813220,5.153743 
	C15.694388,4.688030 17.446037,5.869337 18.641476,6.800101 
	C15.646581,9.235362 12.805862,11.160485 9.965145,13.085608 
	C7.246988,12.725858 4.528831,12.366108 1.405337,12.003179 
	C1.000000,8.430345 1.000000,4.860690 1.000000,1.000000 
	C3.332827,1.000000 5.671680,1.000000 8.505266,1.000000 
z"/>
<path fill="#0C234C" opacity="1.000000" stroke="none" 
	d="
M9.807773,13.389032 
	C12.805862,11.160485 15.646581,9.235362 18.784533,7.139137 
	C21.518864,6.644198 23.955910,6.037138 26.393064,6.036711 
	C297.303955,5.989177 568.214905,5.986925 840.063232,5.988957 
	C853.317810,5.984455 865.634949,5.973121 877.952026,5.961786 
	C887.700073,7.076258 894.270447,12.256389 897.509766,22.026564 
	C897.203735,24.623957 897.040405,26.613512 897.039917,28.603111 
	C897.019592,105.756241 897.014099,182.909363 897.006714,260.062500 
	C896.818237,266.357239 892.884888,270.155212 887.963989,273.067902 
	C885.744690,274.381531 883.117371,275.005676 880.084961,275.583344 
	C877.667786,275.162506 875.840881,275.047241 874.013916,275.047119 
	C754.217896,275.038605 634.421814,275.046326 514.625793,275.037781 
	C350.012756,275.026062 185.399750,275.002655 20.786724,274.984222 
	C13.134676,274.888916 4.697143,266.229645 4.998014,256.964233 
	C5.003435,179.396515 4.991623,102.708099 4.979812,26.019678 
	C6.536674,21.910604 8.093537,17.801531 9.807773,13.389032 
M669.267151,108.517601 
	C669.169189,129.805161 669.064758,151.092697 669.012939,172.380356 
	C669.011719,172.884308 669.601013,173.389694 670.454224,174.545929 
	C675.991821,174.348541 681.529358,174.151154 687.856812,173.587067 
	C687.856812,151.854431 687.856812,130.121811 687.856812,108.206810 
	C681.639038,108.206810 675.849182,108.206810 669.267151,108.517601 
M583.577148,108.639671 
	C583.383240,109.400787 583.021179,110.161659 583.020020,110.923065 
	C582.989868,130.878525 582.983459,150.834076 583.036621,170.789444 
	C583.039368,171.823105 583.605835,172.855240 584.448975,174.541245 
	C590.277527,174.361633 596.106018,174.182022 602.594116,173.471878 
	C602.723877,172.827972 602.966370,172.184204 602.967102,171.540161 
	C602.989929,151.435928 603.003540,131.331665 602.952209,111.227539 
	C602.949524,110.161987 602.367859,109.097900 601.264893,108.317001 
	C595.551697,108.557930 589.838562,108.798851 583.577148,108.639671 
M625.092773,107.963554 
	C621.156555,107.963554 617.220337,107.963554 612.402527,107.963554 
	C612.959167,113.084961 613.438110,117.491600 614.459717,122.550148 
	C618.326904,122.722221 622.194153,122.894295 625.933167,123.986130 
	C625.926331,139.146484 625.891724,154.306976 625.956604,169.467026 
	C625.962952,170.945602 626.582886,172.421555 627.461121,174.551071 
	C632.991760,174.354919 638.522400,174.158768 644.757935,173.488464 
	C644.834045,171.677887 644.967041,169.867630 644.977356,168.056686 
	C645.062927,153.022400 645.125793,137.987976 646.058655,122.987991 
	C650.263733,122.551605 654.468811,122.115227 658.404907,121.706757 
	C658.404907,116.988960 658.404907,112.841370 658.404907,108.655441 
	C653.735840,108.655441 649.666077,108.655441 645.670715,108.655441 
	C643.104553,95.220222 644.598267,93.014664 658.648743,89.167099 
	C658.648743,84.962784 658.648743,80.741035 658.648743,75.774414 
	C653.725220,76.137917 649.033325,75.825142 644.703247,76.930054 
	C632.670898,80.000381 626.422852,86.072212 626.997192,99.916550 
	C627.108459,102.597260 626.372131,105.313141 625.092773,107.963554 
M726.572083,132.587631 
	C729.566711,123.667702 732.545288,121.592216 741.837341,121.950874 
	C748.085022,122.192024 751.034424,125.161400 752.168274,133.510452 
	C752.121765,146.286697 752.061401,159.062927 752.066711,171.839157 
	C752.067017,172.523758 752.619324,173.208115 753.453430,174.544785 
	C758.990967,174.347733 764.528564,174.150681 770.868042,173.604782 
	C770.900757,158.416229 770.933472,143.227692 770.962830,127.233177 
	C769.309021,123.371490 768.043701,119.280624 765.927124,115.691872 
	C760.010925,105.660515 739.314575,105.636955 730.933960,111.772507 
	C729.252380,113.003548 727.614502,114.294266 725.495972,115.908302 
	C725.495972,113.049614 725.495972,110.906967 725.495972,109.033203 
	C719.365967,109.033203 713.748474,109.033203 707.632446,108.488701 
	C707.401489,109.060463 706.969604,109.631874 706.968628,110.204041 
	C706.932983,130.610703 706.926270,151.017471 706.978210,171.424072 
	C706.980286,172.248672 707.589783,173.071732 708.455505,174.546829 
	C713.993103,174.349213 719.530640,174.151596 725.815918,173.529907 
	C725.882507,160.032074 725.949036,146.534241 726.572083,132.587631 
M463.279022,147.679855 
	C464.022095,152.909271 461.720886,158.303650 457.075012,159.268661 
	C452.497620,160.219467 447.460602,160.147064 442.866669,159.265427 
	C440.926300,158.893021 439.604004,155.300018 438.051483,152.207306 
	C438.023743,139.225800 438.028687,126.244034 437.929443,113.263069 
	C437.916107,111.521576 437.376587,109.784111 436.282684,108.314468 
	C430.564728,108.556816 424.846802,108.799156 418.576569,108.667183 
	C418.393799,109.096710 418.051788,109.526039 418.051300,109.955772 
	C418.033813,124.653526 418.034241,139.351379 418.093475,154.048981 
	C418.097168,154.965073 418.598541,155.879166 419.212494,157.506775 
	C428.507568,184.811371 446.551117,175.976822 464.539978,168.314438 
	C464.843567,170.426666 465.139069,172.482864 465.532623,175.221298 
	C471.176758,174.800262 476.567413,174.398117 482.680328,173.536926 
	C482.774323,152.278366 482.874939,131.019821 482.926422,109.761147 
	C482.927795,109.195122 482.395508,108.627808 481.305054,108.312141 
	C475.564789,108.560593 469.824493,108.809052 463.513123,108.802635 
	C463.345612,121.556282 463.178101,134.309937 463.279022,147.679855 
M547.800293,174.339249 
	C553.517700,174.225021 559.235168,174.110779 565.682129,173.547440 
	C565.776184,161.097672 565.930420,148.647903 565.926514,136.198166 
	C565.925354,132.589020 565.470642,128.980011 565.009949,124.606354 
	C560.943115,113.959229 552.824524,106.927689 545.910034,107.495956 
	C536.746765,108.249046 527.137146,107.223351 520.252808,116.765892 
	C519.945374,113.405006 519.769897,111.486961 519.546814,109.048172 
	C513.618286,109.048172 507.867371,109.048172 501.550751,108.729134 
	C501.366974,109.323509 501.023376,109.917671 501.022583,110.512299 
	C500.995331,130.611130 500.986572,150.710007 501.041077,170.808731 
	C501.043915,171.855560 501.625702,172.900833 502.496429,174.578888 
	C508.309418,174.386566 514.122437,174.194244 520.590332,173.466278 
	C520.723206,160.629089 520.856079,147.791901 520.999390,134.162598 
	C520.835571,127.979919 526.428040,122.163025 532.381531,121.885551 
	C540.550781,121.504829 544.998047,124.084618 546.250061,131.489410 
	C546.181335,144.953827 546.097229,158.418228 546.087158,171.882690 
	C546.086609,172.587646 546.714966,173.293076 547.800293,174.339249 
M836.122437,76.388092 
	C836.040649,85.877106 836.014465,95.367096 835.847473,104.854614 
	C835.787476,108.264252 835.388306,111.667915 834.496521,114.805840 
	C828.445374,109.207558 821.322510,107.638771 813.162720,107.908997 
	C806.346008,108.134735 800.837280,110.437065 795.935730,114.744011 
	C785.227417,124.153130 782.487793,135.922684 784.906860,149.698669 
	C788.404480,169.616898 808.326355,181.850845 827.717529,172.577667 
	C830.611023,171.193939 833.463013,169.723129 837.036926,167.942459 
	C835.620789,175.385437 840.025146,175.420563 844.725952,174.988327 
	C847.841553,174.701843 850.947144,174.306366 854.773499,173.498322 
	C854.836853,141.711288 854.906128,109.924248 854.925842,78.137192 
	C854.926270,77.438957 854.362305,76.740372 853.118835,76.013084 
	C847.722656,76.024956 842.326416,76.036819 836.122437,76.388092 
M108.538498,157.916473 
	C116.854195,152.456848 118.541275,162.090012 123.846275,163.973816 
	C122.211311,168.253204 120.733414,171.953918 119.385963,175.701523 
	C118.315765,178.677994 117.388344,181.214462 113.681328,182.455948 
	C110.153427,183.637451 109.018440,187.288864 110.787292,190.798615 
	C112.333031,193.865631 115.105370,195.491898 118.678535,194.255753 
	C122.388199,192.972382 123.814545,190.210953 122.953629,186.377014 
	C122.604034,184.820145 121.333191,183.091614 121.718231,181.813873 
	C123.375862,176.313171 125.492577,170.950806 127.234802,166.113632 
	C132.030594,166.113632 135.970291,166.113632 140.059952,166.113632 
	C144.914627,178.866226 149.766083,191.419128 154.371658,204.061615 
	C154.751465,205.104233 153.792282,207.041565 152.893356,208.073944 
	C148.570496,213.038788 147.310760,219.437012 149.885864,224.730591 
	C152.944946,231.019089 159.907608,234.357361 166.556961,232.723572 
	C172.896896,231.165817 177.595245,224.905457 177.418564,218.250870 
	C177.234161,211.305664 172.313202,205.822052 165.340225,204.283676 
	C163.547424,203.888123 161.054520,202.778961 160.481613,201.354721 
	C155.827332,189.784134 151.492722,178.082489 147.256088,166.350204 
	C146.826385,165.160248 147.221924,163.117065 148.038208,162.144165 
	C149.931915,159.887100 152.317581,158.042801 154.788544,155.769226 
	C168.423721,160.940491 182.303711,166.058777 196.048523,171.517410 
	C199.596710,172.926544 202.612289,175.631546 206.088608,177.287659 
	C207.628494,178.021271 210.178329,178.346893 211.407227,177.541611 
	C212.644958,176.730515 213.757294,173.855301 213.214111,172.665115 
	C212.507401,171.116562 209.446472,169.014328 208.562576,169.459778 
	C204.953369,171.278717 202.202347,169.467453 199.213943,168.351776 
	C189.078369,164.567749 178.946106,160.774536 168.827438,156.945587 
	C164.668701,155.371918 160.547791,153.698273 157.166626,152.367935 
	C154.880005,141.230988 160.643616,137.189880 169.858261,136.069489 
	C170.511490,135.990051 171.198715,135.471222 171.773071,135.597656 
	C173.439819,135.964600 175.159973,136.349884 176.671829,137.103729 
	C179.577499,138.552567 182.188538,141.085983 185.217804,141.693451 
	C192.130920,143.079758 198.435852,138.080109 199.674728,131.077499 
	C200.882751,124.249321 196.287598,117.726570 189.295883,116.344902 
	C182.353729,114.973038 175.916519,119.248154 174.197098,126.210167 
	C173.766052,127.955421 173.222687,130.620895 172.046432,131.069778 
	C166.995712,132.997253 161.689697,134.255814 156.397293,135.780975 
	C152.756393,127.349480 146.670868,122.613289 138.298981,120.808838 
	C138.298981,106.475060 138.298981,92.505898 138.298981,78.416328 
	C139.515900,77.837784 140.737305,77.329865 141.889999,76.696823 
	C147.588547,73.567307 150.565674,67.303658 149.336258,61.114151 
	C148.097900,54.879597 142.995056,50.339455 136.445557,49.644924 
	C130.332062,48.996632 124.299446,52.529022 121.956390,58.129044 
	C119.395966,64.248581 120.639587,71.876366 126.543045,74.943573 
	C132.527664,78.052963 132.255081,82.393143 132.167419,87.498665 
	C132.044449,94.661133 132.136368,101.827293 132.136368,108.991875 
	C132.136368,112.932747 132.136368,116.873611 132.136368,119.417526 
	C126.201035,122.733604 121.351837,125.442856 115.886276,128.496475 
	C112.577339,125.904411 108.535309,122.760490 104.518913,119.584152 
	C101.720596,117.371117 99.021843,115.514198 98.780518,111.061272 
	C98.587456,107.498909 95.263763,105.403793 91.358154,106.256210 
	C87.862312,107.019188 85.775826,109.509575 86.136337,113.125801 
	C86.515961,116.933723 89.184357,119.604164 92.871170,118.986610 
	C96.469879,118.383804 98.483749,120.036736 100.794357,121.877693 
	C104.442085,124.783989 108.251671,127.515312 111.655716,130.682892 
	C112.740334,131.692169 113.211403,133.865768 113.163437,135.482880 
	C113.061195,138.929657 111.933418,142.396698 112.175354,145.787704 
	C112.387253,148.757782 111.432999,149.889740 108.894661,150.870529 
	C95.705132,155.966766 82.607498,161.303284 69.373657,166.278961 
	C67.844620,166.853851 65.325027,166.233170 63.855686,165.267517 
	C58.726379,161.896530 52.628643,162.828094 49.432049,167.869049 
	C46.444130,172.580948 48.095505,179.072601 52.954979,181.717880 
	C57.998352,184.463257 63.914143,182.191879 66.794312,176.788544 
	C67.694145,175.100388 69.378212,173.369064 71.112869,172.661194 
	C83.287193,167.693176 95.568695,162.987823 108.538498,157.916473 
M258.695282,109.386925 
	C259.883087,112.756989 260.889008,116.204697 262.289185,119.484077 
	C269.502441,136.378204 276.833435,153.222046 284.051147,170.114288 
	C284.448486,171.044266 284.559387,172.400665 284.185974,173.302994 
	C282.609772,177.111801 280.739929,180.797699 279.087616,184.576706 
	C276.070709,191.476654 273.131897,198.410751 269.703400,206.395187 
	C275.763641,205.920364 280.839996,205.651367 285.874420,205.038284 
	C287.144043,204.883682 288.906586,203.906387 289.380280,202.836700 
	C294.323151,191.674561 299.095306,180.435776 303.823639,169.179916 
	C309.571381,155.497192 315.238831,141.780670 320.926300,128.072647 
	C323.492981,121.886360 326.024048,115.685272 328.778290,108.987396 
	C323.051849,108.987396 318.046936,108.734772 313.094879,109.135666 
	C311.534912,109.261963 309.325348,110.830505 308.762817,112.267387 
	C305.241791,121.260887 302.261536,130.465775 298.755493,139.465607 
	C297.439117,142.844727 295.195160,145.862488 292.977570,149.738022 
	C291.691681,147.377243 290.895020,146.272095 290.449249,145.040009 
	C286.644775,134.524506 282.676514,124.058769 279.270355,113.413963 
	C278.113892,109.799927 276.476318,108.694275 272.925995,108.922157 
	C268.443848,109.209846 263.932465,109.041954 258.695282,109.386925 
M673.027344,96.432541 
	C677.551147,100.350845 682.127930,98.231392 685.548096,95.343758 
	C687.813599,93.430969 689.861511,89.174774 689.324280,86.508133 
	C688.481567,82.325348 685.341553,78.725883 680.233521,78.021111 
	C675.038086,77.304283 671.031372,79.920151 669.158325,83.909943 
	C667.208069,88.064125 668.250000,92.803101 673.027344,96.432541 
M595.337952,97.964813 
	C603.427490,94.567413 605.552124,89.232971 601.321411,82.941681 
	C597.606934,77.418030 593.841675,76.229973 588.475098,78.888283 
	C583.992981,81.108498 581.844910,86.061081 583.207336,91.033478 
	C584.500427,95.752937 589.248352,98.663757 595.337952,97.964813 
z"/>
<path fill="#7E8AA1" opacity="1.000000" stroke="none" 
	d="
M21.016897,275.364441 
	C185.399750,275.002655 350.012756,275.026062 514.625793,275.037781 
	C634.421814,275.046326 754.217896,275.038605 874.013916,275.047119 
	C875.840881,275.047241 877.667786,275.162506 879.708008,275.577545 
	C878.089355,275.953979 876.257507,275.997009 874.425598,275.997040 
	C591.184204,276.000793 307.942810,276.001709 24.701403,275.991577 
	C23.549957,275.991547 22.398514,275.830505 21.016897,275.364441 
z"/>
<path fill="#516180" opacity="1.000000" stroke="none" 
	d="
M897.374146,259.830139 
	C897.014099,182.909363 897.019592,105.756241 897.039917,28.603111 
	C897.040405,26.613512 897.203735,24.623957 897.601685,22.366230 
	C897.941406,99.610847 897.972290,177.123611 897.989075,254.636383 
	C897.989441,256.290131 897.827759,257.943970 897.374146,259.830139 
z"/>
<path fill="#526380" opacity="1.000000" stroke="none" 
	d="
M4.617620,26.246655 
	C4.991623,102.708099 5.003435,179.396515 5.001031,256.555603 
	C4.657143,255.841461 4.039608,254.656799 4.038919,253.471786 
	C3.995322,178.461929 4.001293,103.452026 4.014399,28.442133 
	C4.014513,27.785950 4.171620,27.129797 4.617620,26.246655 
z"/>
<path fill="#F0F2F4" opacity="1.000000" stroke="none" 
	d="
M877.784912,5.558107 
	C865.634949,5.973121 853.317810,5.984455 840.536133,5.973542 
	C840.711792,5.635015 841.351807,5.043516 841.992126,5.043247 
	C853.867371,5.038271 865.742615,5.103770 877.784912,5.558107 
z"/>
<path fill="#F1CA3D" opacity="1.000000" stroke="none" 
	d="
M108.177216,158.057480 
	C95.568695,162.987823 83.287193,167.693176 71.112869,172.661194 
	C69.378212,173.369064 67.694145,175.100388 66.794312,176.788544 
	C63.914143,182.191879 57.998352,184.463257 52.954979,181.717880 
	C48.095505,179.072601 46.444130,172.580948 49.432049,167.869049 
	C52.628643,162.828094 58.726379,161.896530 63.855686,165.267517 
	C65.325027,166.233170 67.844620,166.853851 69.373657,166.278961 
	C82.607498,161.303284 95.705132,155.966766 108.894661,150.870529 
	C111.432999,149.889740 112.387253,148.757782 112.175354,145.787704 
	C111.933418,142.396698 113.061195,138.929657 113.163437,135.482880 
	C113.211403,133.865768 112.740334,131.692169 111.655716,130.682892 
	C108.251671,127.515312 104.442085,124.783989 100.794357,121.877693 
	C98.483749,120.036736 96.469879,118.383804 92.871170,118.986610 
	C89.184357,119.604164 86.515961,116.933723 86.136337,113.125801 
	C85.775826,109.509575 87.862312,107.019188 91.358154,106.256210 
	C95.263763,105.403793 98.587456,107.498909 98.780518,111.061272 
	C99.021843,115.514198 101.720596,117.371117 104.518913,119.584152 
	C108.535309,122.760490 112.577339,125.904411 115.886276,128.496475 
	C121.351837,125.442856 126.201035,122.733604 132.136368,119.417526 
	C132.136368,116.873611 132.136368,112.932747 132.136368,108.991875 
	C132.136368,101.827293 132.044449,94.661133 132.167419,87.498665 
	C132.255081,82.393143 132.527664,78.052963 126.543045,74.943573 
	C120.639587,71.876366 119.395966,64.248581 121.956390,58.129044 
	C124.299446,52.529022 130.332062,48.996632 136.445557,49.644924 
	C142.995056,50.339455 148.097900,54.879597 149.336258,61.114151 
	C150.565674,67.303658 147.588547,73.567307 141.889999,76.696823 
	C140.737305,77.329865 139.515900,77.837784 138.298981,78.416328 
	C138.298981,92.505898 138.298981,106.475060 138.298981,120.808838 
	C146.670868,122.613289 152.756393,127.349480 156.397293,135.780975 
	C161.689697,134.255814 166.995712,132.997253 172.046432,131.069778 
	C173.222687,130.620895 173.766052,127.955421 174.197098,126.210167 
	C175.916519,119.248154 182.353729,114.973038 189.295883,116.344902 
	C196.287598,117.726570 200.882751,124.249321 199.674728,131.077499 
	C198.435852,138.080109 192.130920,143.079758 185.217804,141.693451 
	C182.188538,141.085983 179.577499,138.552567 176.671829,137.103729 
	C175.159973,136.349884 173.439819,135.964600 171.773071,135.597656 
	C171.198715,135.471222 170.511490,135.990051 169.858261,136.069489 
	C160.643616,137.189880 154.880005,141.230988 157.166626,152.367935 
	C160.547791,153.698273 164.668701,155.371918 168.827438,156.945587 
	C178.946106,160.774536 189.078369,164.567749 199.213943,168.351776 
	C202.202347,169.467453 204.953369,171.278717 208.562576,169.459778 
	C209.446472,169.014328 212.507401,171.116562 213.214111,172.665115 
	C213.757294,173.855301 212.644958,176.730515 211.407227,177.541611 
	C210.178329,178.346893 207.628494,178.021271 206.088608,177.287659 
	C202.612289,175.631546 199.596710,172.926544 196.048523,171.517410 
	C182.303711,166.058777 168.423721,160.940491 154.788544,155.769226 
	C152.317581,158.042801 149.931915,159.887100 148.038208,162.144165 
	C147.221924,163.117065 146.826385,165.160248 147.256088,166.350204 
	C151.492722,178.082489 155.827332,189.784134 160.481613,201.354721 
	C161.054520,202.778961 163.547424,203.888123 165.340225,204.283676 
	C172.313202,205.822052 177.234161,211.305664 177.418564,218.250870 
	C177.595245,224.905457 172.896896,231.165817 166.556961,232.723572 
	C159.907608,234.357361 152.944946,231.019089 149.885864,224.730591 
	C147.310760,219.437012 148.570496,213.038788 152.893356,208.073944 
	C153.792282,207.041565 154.751465,205.104233 154.371658,204.061615 
	C149.766083,191.419128 144.914627,178.866226 140.059952,166.113632 
	C135.970291,166.113632 132.030594,166.113632 127.234802,166.113632 
	C125.492577,170.950806 123.375862,176.313171 121.718231,181.813873 
	C121.333191,183.091614 122.604034,184.820145 122.953629,186.377014 
	C123.814545,190.210953 122.388199,192.972382 118.678535,194.255753 
	C115.105370,195.491898 112.333031,193.865631 110.787292,190.798615 
	C109.018440,187.288864 110.153427,183.637451 113.681328,182.455948 
	C117.388344,181.214462 118.315765,178.677994 119.385963,175.701523 
	C120.733414,171.953918 122.211311,168.253204 123.846275,163.973816 
	C118.541275,162.090012 116.854195,152.456848 108.177216,158.057480 
z"/>
<path fill="#000000" opacity="1.000000" stroke="none" 
	d="
M854.057190,173.959686 
	C850.947144,174.306366 847.841553,174.701843 844.725952,174.988327 
	C840.025146,175.420563 835.620789,175.385437 837.036926,167.942459 
	C833.463013,169.723129 830.611023,171.193939 827.717529,172.577667 
	C808.326355,181.850845 788.404480,169.616898 784.906860,149.698669 
	C782.487793,135.922684 785.227417,124.153130 795.935730,114.744011 
	C800.837280,110.437065 806.346008,108.134735 813.162720,107.908997 
	C821.322510,107.638771 828.445374,109.207558 835.021851,115.278183 
	C836.032349,114.664581 836.932190,113.581261 836.939087,112.492302 
	C837.015625,100.344933 836.954346,88.196693 836.930237,76.048683 
	C842.326416,76.036819 847.722656,76.024956 853.564209,76.491806 
	C854.025452,109.300255 854.041321,141.629974 854.057190,173.959686 
M837.964539,141.519531 
	C838.238281,134.395248 834.634766,129.173309 829.458435,124.920532 
	C824.372131,120.741745 810.287048,121.879982 807.110657,126.884293 
	C802.233398,134.568268 801.382751,143.101395 804.414856,151.568405 
	C805.411926,154.352615 808.230652,157.204956 810.946289,158.528488 
	C822.692810,164.253540 837.016602,159.345261 837.964539,141.519531 
z"/>
<path fill="#000000" opacity="1.000000" stroke="none" 
	d="
M259.064484,109.228760 
	C263.932465,109.041954 268.443848,109.209846 272.925995,108.922157 
	C276.476318,108.694275 278.113892,109.799927 279.270355,113.413963 
	C282.676514,124.058769 286.644775,134.524506 290.449249,145.040009 
	C290.895020,146.272095 291.691681,147.377243 292.977570,149.738022 
	C295.195160,145.862488 297.439117,142.844727 298.755493,139.465607 
	C302.261536,130.465775 305.241791,121.260887 308.762817,112.267387 
	C309.325348,110.830505 311.534912,109.261963 313.094879,109.135666 
	C318.046936,108.734772 323.051849,108.987396 328.778290,108.987396 
	C326.024048,115.685272 323.492981,121.886360 320.926300,128.072647 
	C315.238831,141.780670 309.571381,155.497192 303.823639,169.179916 
	C299.095306,180.435776 294.323151,191.674561 289.380280,202.836700 
	C288.906586,203.906387 287.144043,204.883682 285.874420,205.038284 
	C280.839996,205.651367 275.763641,205.920364 269.703400,206.395187 
	C273.131897,198.410751 276.070709,191.476654 279.087616,184.576706 
	C280.739929,180.797699 282.609772,177.111801 284.185974,173.302994 
	C284.559387,172.400665 284.448486,171.044266 284.051147,170.114288 
	C276.833435,153.222046 269.502441,136.378204 262.289185,119.484077 
	C260.889008,116.204697 259.883087,112.756989 259.064484,109.228760 
z"/>
<path fill="#000000" opacity="1.000000" stroke="none" 
	d="
M502.116455,109.048172 
	C507.867371,109.048172 513.618286,109.048172 519.546814,109.048172 
	C519.769897,111.486961 519.945374,113.405006 520.252808,116.765892 
	C527.137146,107.223351 536.746765,108.249046 545.910034,107.495956 
	C552.824524,106.927689 560.943115,113.959229 565.097534,125.426865 
	C565.107605,142.163773 565.030090,158.080154 564.952576,173.996552 
	C559.235168,174.110779 553.517700,174.225021 547.427734,173.764343 
	C547.035034,169.689423 547.003113,166.189392 546.996826,162.689346 
	C546.977661,152.130447 546.968567,141.571564 546.955505,131.012665 
	C544.998047,124.084618 540.550781,121.504829 532.381531,121.885551 
	C526.428040,122.163025 520.835571,127.979919 520.643677,134.807907 
	C520.170410,148.302780 520.052917,161.152359 519.935425,174.001923 
	C514.122437,174.194244 508.309418,174.386566 502.242523,173.797821 
	C502.031250,151.693909 502.073853,130.371033 502.116455,109.048172 
z"/>
<path fill="#000000" opacity="1.000000" stroke="none" 
	d="
M464.084229,109.057510 
	C469.824493,108.809052 475.564789,108.560593 481.671692,108.648651 
	C482.011627,130.655441 481.984863,152.325699 481.958099,173.995972 
	C476.567413,174.398117 471.176758,174.800262 465.532623,175.221298 
	C465.139069,172.482864 464.843567,170.426666 464.539978,168.314438 
	C446.551117,175.976822 428.507568,184.811371 419.055023,156.697510 
	C418.974640,140.272659 419.051758,124.657082 419.128845,109.041504 
	C424.846802,108.799156 430.564728,108.556816 436.658051,108.643280 
	C437.014221,122.527153 436.969574,136.082306 437.020569,149.637100 
	C437.024994,150.816238 437.659119,151.993027 438.000763,153.170898 
	C439.604004,155.300018 440.926300,158.893021 442.866669,159.265427 
	C447.460602,160.147064 452.497620,160.219467 457.075012,159.268661 
	C461.720886,158.303650 464.022095,152.909271 463.488708,147.112793 
	C463.827026,134.049667 463.955627,121.553589 464.084229,109.057510 
z"/>
<path fill="#000000" opacity="1.000000" stroke="none" 
	d="
M708.131042,109.033203 
	C713.748474,109.033203 719.365967,109.033203 725.495972,109.033203 
	C725.495972,110.906967 725.495972,113.049614 725.495972,115.908302 
	C727.614502,114.294266 729.252380,113.003548 730.933960,111.772507 
	C739.314575,105.636955 760.010925,105.660515 765.927124,115.691872 
	C768.043701,119.280624 769.309021,123.371490 770.574829,127.826950 
	C770.146545,143.598358 770.106323,158.776001 770.066101,173.953644 
	C764.528564,174.150681 758.990967,174.347733 753.222290,173.757477 
	C752.966125,159.681702 752.941162,146.393234 752.916138,133.104752 
	C751.034424,125.161400 748.085022,122.192024 741.837341,121.950874 
	C732.545288,121.592216 729.566711,123.667702 725.870117,132.947861 
	C725.134888,146.856720 725.101562,160.405334 725.068237,173.953964 
	C719.530640,174.151596 713.993103,174.349213 708.224365,173.759689 
	C708.039124,151.659439 708.085083,130.346313 708.131042,109.033203 
z"/>
<path fill="#000000" opacity="1.000000" stroke="none" 
	d="
M644.053040,173.962616 
	C638.522400,174.158768 632.991760,174.354919 627.227844,173.763031 
	C626.996338,157.825958 627.024231,142.676834 626.958923,127.528107 
	C626.952454,126.039597 626.374207,124.553558 626.061340,123.066376 
	C622.194153,122.894295 618.326904,122.722221 614.225342,121.765106 
	C613.990906,117.106812 613.990906,113.233559 613.990906,109.559517 
	C618.316772,109.003593 622.171753,108.508194 626.026733,108.012794 
	C626.372131,105.313141 627.108459,102.597260 626.997192,99.916550 
	C626.422852,86.072212 632.670898,80.000381 644.703247,76.930054 
	C649.033325,75.825142 653.725220,76.137917 658.648743,75.774414 
	C658.648743,80.741035 658.648743,84.962784 658.648743,89.167099 
	C644.598267,93.014664 643.104553,95.220222 645.670715,108.655441 
	C649.666077,108.655441 653.735840,108.655441 658.404907,108.655441 
	C658.404907,112.841370 658.404907,116.988960 658.404907,121.706757 
	C654.468811,122.115227 650.263733,122.551605 645.403259,122.639603 
	C644.498779,123.135323 644.033936,123.979088 644.032593,124.823578 
	C644.007019,141.203201 644.035583,157.582916 644.053040,173.962616 
z"/>
<path fill="#000000" opacity="1.000000" stroke="none" 
	d="
M601.934570,174.002411 
	C596.106018,174.182022 590.277527,174.361633 584.218201,173.754211 
	C584.033447,151.658035 584.079407,130.348907 584.125366,109.039772 
	C589.838562,108.798851 595.551697,108.557930 601.643311,108.639961 
	C601.992676,130.642746 601.963623,152.322586 601.934570,174.002411 
z"/>
<path fill="#000000" opacity="1.000000" stroke="none" 
	d="
M687.066956,173.953766 
	C681.529358,174.151154 675.991821,174.348541 670.223267,173.758881 
	C670.000122,151.667175 670.007996,130.362518 670.482422,109.031433 
	C676.216797,109.004990 681.484619,109.004990 687.066956,109.004990 
	C687.066956,131.026596 687.066956,152.490173 687.066956,173.953766 
z"/>
<path fill="#000000" opacity="1.000000" stroke="none" 
	d="
M672.719788,96.226654 
	C668.250000,92.803101 667.208069,88.064125 669.158325,83.909943 
	C671.031372,79.920151 675.038086,77.304283 680.233521,78.021111 
	C685.341553,78.725883 688.481567,82.325348 689.324280,86.508133 
	C689.861511,89.174774 687.813599,93.430969 685.548096,95.343758 
	C682.127930,98.231392 677.551147,100.350845 672.719788,96.226654 
z"/>
<path fill="#000000" opacity="1.000000" stroke="none" 
	d="
M594.958130,97.984802 
	C589.248352,98.663757 584.500427,95.752937 583.207336,91.033478 
	C581.844910,86.061081 583.992981,81.108498 588.475098,78.888283 
	C593.841675,76.229973 597.606934,77.418030 601.321411,82.941681 
	C605.552124,89.232971 603.427490,94.567413 594.958130,97.984802 
z"/>
<path fill="#99A3B4" opacity="1.000000" stroke="none" 
	d="
M854.415344,173.729004 
	C854.041321,141.629974 854.025452,109.300255 854.035645,76.506241 
	C854.362305,76.740372 854.926270,77.438957 854.925842,78.137192 
	C854.906128,109.924248 854.836853,141.711288 854.415344,173.729004 
z"/>
<path fill="#D9DDE4" opacity="1.000000" stroke="none" 
	d="
M687.461914,173.770416 
	C687.066956,152.490173 687.066956,131.026596 687.066956,109.004990 
	C681.484619,109.004990 676.216797,109.004990 670.520996,108.820084 
	C670.093018,108.635185 670.059326,108.206810 670.059326,108.206810 
	C675.849182,108.206810 681.639038,108.206810 687.856812,108.206810 
	C687.856812,130.121811 687.856812,151.854431 687.461914,173.770416 
z"/>
<path fill="#425474" opacity="1.000000" stroke="none" 
	d="
M602.264404,173.737152 
	C601.963623,152.322586 601.992676,130.642746 602.038696,108.498032 
	C602.367859,109.097900 602.949524,110.161987 602.952209,111.227539 
	C603.003540,131.331665 602.989929,151.435928 602.967102,171.540161 
	C602.966370,172.184204 602.723877,172.827972 602.264404,173.737152 
z"/>
<path fill="#AEB6C4" opacity="1.000000" stroke="none" 
	d="
M669.663208,108.362206 
	C670.059326,108.206810 670.093018,108.635185 670.054443,108.846527 
	C670.007996,130.362518 670.000122,151.667175 669.953552,173.433121 
	C669.601013,173.389694 669.011719,172.884308 669.012939,172.380356 
	C669.064758,151.092697 669.169189,129.805161 669.663208,108.362206 
z"/>
<path fill="#BFC6D1" opacity="1.000000" stroke="none" 
	d="
M707.881714,108.760956 
	C708.085083,130.346313 708.039124,151.659439 707.954712,173.434021 
	C707.589783,173.071732 706.980286,172.248672 706.978210,171.424072 
	C706.926270,151.017471 706.932983,130.610703 706.968628,110.204041 
	C706.969604,109.631874 707.401489,109.060463 707.881714,108.760956 
z"/>
<path fill="#8994A8" opacity="1.000000" stroke="none" 
	d="
M583.851257,108.839722 
	C584.079407,130.348907 584.033447,151.658035 583.948608,173.427612 
	C583.605835,172.855240 583.039368,171.823105 583.036621,170.789444 
	C582.983459,150.834076 582.989868,130.878525 583.020020,110.923065 
	C583.021179,110.161659 583.383240,109.400787 583.851257,108.839722 
z"/>
<path fill="#728098" opacity="1.000000" stroke="none" 
	d="
M482.319214,173.766449 
	C481.984863,152.325699 482.011627,130.655441 482.075256,108.523132 
	C482.395508,108.627808 482.927795,109.195122 482.926422,109.761147 
	C482.874939,131.019821 482.774323,152.278366 482.319214,173.766449 
z"/>
<path fill="#64738D" opacity="1.000000" stroke="none" 
	d="
M501.833618,108.888657 
	C502.073853,130.371033 502.031250,151.693909 501.963257,173.481812 
	C501.625702,172.900833 501.043915,171.855560 501.041077,170.808731 
	C500.986572,150.710007 500.995331,130.611130 501.022583,110.512299 
	C501.023376,109.917671 501.366974,109.323509 501.833618,108.888657 
z"/>
<path fill="#8994A8" opacity="1.000000" stroke="none" 
	d="
M644.405518,173.725540 
	C644.035583,157.582916 644.007019,141.203201 644.032593,124.823578 
	C644.033936,123.979088 644.498779,123.135323 644.971680,122.622406 
	C645.125793,137.987976 645.062927,153.022400 644.977356,168.056686 
	C644.967041,169.867630 644.834045,171.677887 644.405518,173.725540 
z"/>
<path fill="#E3E5EA" opacity="1.000000" stroke="none" 
	d="
M625.997253,123.526253 
	C626.374207,124.553558 626.952454,126.039597 626.958923,127.528107 
	C627.024231,142.676834 626.996338,157.825958 626.956299,173.436859 
	C626.582886,172.421555 625.962952,170.945602 625.956604,169.467026 
	C625.891724,154.306976 625.926331,139.146484 625.997253,123.526253 
z"/>
<path fill="#7E8AA1" opacity="1.000000" stroke="none" 
	d="
M418.852722,108.854340 
	C419.051758,124.657082 418.974640,140.272659 418.882996,156.341217 
	C418.598541,155.879166 418.097168,154.965073 418.093475,154.048981 
	C418.034241,139.351379 418.033813,124.653526 418.051300,109.955772 
	C418.051788,109.526039 418.393799,109.096710 418.852722,108.854340 
z"/>
<path fill="#78869C" opacity="1.000000" stroke="none" 
	d="
M565.317383,173.772003 
	C565.030090,158.080154 565.107605,142.163773 565.204468,125.809158 
	C565.470642,128.980011 565.925354,132.589020 565.926514,136.198166 
	C565.930420,148.647903 565.776184,161.097672 565.317383,173.772003 
z"/>
<path fill="#546582" opacity="1.000000" stroke="none" 
	d="
M546.602783,131.251038 
	C546.968567,141.571564 546.977661,152.130447 546.996826,162.689346 
	C547.003113,166.189392 547.035034,169.689423 547.052856,173.593872 
	C546.714966,173.293076 546.086609,172.587646 546.087158,171.882690 
	C546.097229,158.418228 546.181335,144.953827 546.602783,131.251038 
z"/>
<path fill="#D8DCE2" opacity="1.000000" stroke="none" 
	d="
M770.467041,173.779205 
	C770.106323,158.776001 770.146545,143.598358 770.576477,128.229919 
	C770.933472,143.227692 770.900757,158.416229 770.467041,173.779205 
z"/>
<path fill="#4F5F7E" opacity="1.000000" stroke="none" 
	d="
M438.026123,152.689102 
	C437.659119,151.993027 437.024994,150.816238 437.020569,149.637100 
	C436.969574,136.082306 437.014221,122.527153 437.057068,108.508438 
	C437.376587,109.784111 437.916107,111.521576 437.929443,113.263069 
	C438.028687,126.244034 438.023743,139.225800 438.026123,152.689102 
z"/>
<path fill="#C3C8D3" opacity="1.000000" stroke="none" 
	d="
M725.442078,173.741943 
	C725.101562,160.405334 725.134888,146.856720 725.591919,133.172241 
	C725.949036,146.534241 725.882507,160.032074 725.442078,173.741943 
z"/>
<path fill="#B0B8C5" opacity="1.000000" stroke="none" 
	d="
M752.542236,133.307602 
	C752.941162,146.393234 752.966125,159.681702 752.952881,173.431396 
	C752.619324,173.208115 752.067017,172.523758 752.066711,171.839157 
	C752.061401,159.062927 752.121765,146.286697 752.542236,133.307602 
z"/>
<path fill="#DCDFE5" opacity="1.000000" stroke="none" 
	d="
M836.526367,76.218384 
	C836.954346,88.196693 837.015625,100.344933 836.939087,112.492302 
	C836.932190,113.581261 836.032349,114.664581 835.345581,115.412415 
	C835.388306,111.667915 835.787476,108.264252 835.847473,104.854614 
	C836.014465,95.367096 836.040649,85.877106 836.526367,76.218384 
z"/>
<path fill="#3E5071" opacity="1.000000" stroke="none" 
	d="
M520.262878,173.734100 
	C520.052917,161.152359 520.170410,148.302780 520.638428,135.203964 
	C520.856079,147.791901 520.723206,160.629089 520.262878,173.734100 
z"/>
<path fill="#35486B" opacity="1.000000" stroke="none" 
	d="
M463.798676,108.930069 
	C463.955627,121.553589 463.827026,134.049667 463.354523,146.804657 
	C463.178101,134.309937 463.345612,121.556282 463.798676,108.930069 
z"/>
<path fill="#D5D9E0" opacity="1.000000" stroke="none" 
	d="
M625.559753,107.988174 
	C622.171753,108.508194 618.316772,109.003593 613.990906,109.559517 
	C613.990906,113.233559 613.990906,117.106812 613.953979,121.439163 
	C613.438110,117.491600 612.959167,113.084961 612.402527,107.963554 
	C617.220337,107.963554 621.156555,107.963554 625.559753,107.988174 
z"/>
<path fill="#0E254F" opacity="1.000000" stroke="none" 
	d="
M837.964478,141.955902 
	C837.016602,159.345261 822.692810,164.253540 810.946289,158.528488 
	C808.230652,157.204956 805.411926,154.352615 804.414856,151.568405 
	C801.382751,143.101395 802.233398,134.568268 807.110657,126.884293 
	C810.287048,121.879982 824.372131,120.741745 829.458435,124.920532 
	C834.634766,129.173309 838.238281,134.395248 837.964478,141.955902 
z"/>
</svg>