<?xml version="1.0" standalone="no"?>
<!DOCTYPE svg PUBLIC "-//W3C//DTD SVG 20010904//EN"
 "http://www.w3.org/TR/2001/REC-SVG-20010904/DTD/svg10.dtd">
<svg version="1.0" xmlns="http://www.w3.org/2000/svg"
 width="147.000000pt" height="147.000000pt" viewBox="0 0 147.000000 147.000000"
 preserveAspectRatio="xMidYMid meet">
<metadata>
Created by potrace 1.14, written by Peter Selinger 2001-2017
</metadata>
<g transform="translate(0.000000,147.000000) scale(0.100000,-0.100000)"
fill="#000000" stroke="none">
<path d="M691 1239 c-60 -24 -72 -81 -28 -141 29 -40 31 -50 34 -139 l4 -97
-43 -25 -42 -25 -33 25 c-17 13 -41 40 -52 59 -24 40 -64 47 -81 14 -15 -28 4
-59 40 -66 15 -4 44 -20 64 -36 33 -27 36 -34 34 -74 -3 -49 3 -44 -134 -97
-77 -30 -97 -34 -129 -27 -61 14 -103 -22 -89 -75 13 -52 73 -60 112 -15 15
17 34 30 44 30 9 0 19 4 22 9 3 5 18 12 33 16 29 7 105 38 137 56 14 8 23 6
41 -11 19 -18 22 -27 15 -51 -5 -17 -23 -46 -39 -65 -34 -38 -32 -55 6 -75 23
-12 27 -11 43 9 12 14 19 38 18 64 0 23 5 44 11 46 6 2 11 10 11 18 0 10 9 14
29 12 26 -2 31 -9 51 -68 13 -36 27 -70 31 -76 13 -17 14 -67 1 -90 -17 -33
-7 -86 23 -112 52 -45 127 -15 138 55 8 47 -10 77 -58 94 -25 9 -35 19 -35 34
0 12 -5 26 -11 32 -6 6 -12 17 -13 24 -1 8 -9 30 -18 50 -29 68 -30 76 -7 98
14 13 27 17 38 11 13 -7 80 -33 176 -70 11 -4 40 -17 65 -28 40 -19 47 -20 60
-6 21 20 2 46 -41 56 -19 5 -87 28 -151 51 -112 40 -117 43 -111 67 9 37 11
39 47 46 26 4 41 1 64 -16 38 -29 81 -21 105 19 33 56 12 112 -47 127 -25 6
-85 -19 -87 -36 -1 -6 -3 -14 -4 -20 -1 -5 -3 -14 -4 -19 0 -5 -13 -12 -28
-15 -16 -4 -35 -9 -44 -12 -9 -2 -21 6 -29 22 -8 14 -29 32 -47 39 l-33 14 0
110 c0 69 4 111 10 111 17 0 50 63 50 97 0 25 -8 38 -33 57 -36 28 -49 30 -86
15z"/>
</g>
</svg>
